<?xml version="1.0" standalone="no"?>
<!DOCTYPE svg PUBLIC "-//W3C//DTD SVG 1.1//EN" "http://www.w3.org/Graphics/SVG/1.1/DTD/svg11.dtd" >
<svg xmlns="http://www.w3.org/2000/svg" xmlns:xlink="http://www.w3.org/1999/xlink" version="1.1">
<metadata></metadata>
<defs>
<font id="stymiebold" horiz-adv-x="1368" >
<font-face units-per-em="2048" ascent="1638" descent="-410" />
<missing-glyph horiz-adv-x="675" />
<glyph horiz-adv-x="0" />
<glyph unicode="&#xd;" horiz-adv-x="675" />
<glyph unicode=" "  horiz-adv-x="675" />
<glyph unicode="&#x09;" horiz-adv-x="675" />
<glyph unicode="&#xa0;" horiz-adv-x="675" />
<glyph unicode="!" horiz-adv-x="440" d="M143 -2v248h269v-248h-269zM147 1022v430h265v-434q0 -139 -20.5 -310t-39.5 -331h-145q-8 94 -27 239q-33 274 -33 406z" />
<glyph unicode="&#x22;" horiz-adv-x="706" d="M55 1200v246h269v-295q0 -121 -80 -158q-51 -25 -187 -24v80h15q70 0 91 25.5t21 96.5v29h-129zM403 969v78q66 0 93 16q37 23 36 84v53h-129v248h271v-260q0 -121 -49.5 -170t-169.5 -49h-52z" />
<glyph unicode="#" horiz-adv-x="1134" d="M68 422v137h219l53 395h-219v140h239l60 422h141l-59 -422h254l59 422h141l-59 -422h170v-138h-190l-56 -397h189v-137h-207l-60 -422h-141l60 422h-254l-60 -422h-141l59 422h-198zM428 559h252l55 397h-252z" />
<glyph unicode="$" horiz-adv-x="1280" d="M8 403l250 64q18 -84 66.5 -150.5t121.5 -85.5q12 -4 32 -6t38 -4v393q-274 72 -377 181q-90 94 -90 235q0 178 150 287q125 92 317 115v98h201v-100q193 -27 287 -104t155 -261l-231 -64q-12 86 -68.5 146.5t-142.5 73.5v-377q221 -23 348 -105q164 -106 164 -309 q0 -193 -166 -303q-135 -90 -346 -111v-163h-199v161q-207 23 -319.5 109t-190.5 280zM297 1051q0 -82 68.5 -131.5t152.5 -49.5v375q-94 -18 -149 -57q-72 -51 -72 -137zM715 215q100 0 176 45q92 56 92 150q0 92 -92 139q-63 33 -176 47v-381z" />
<glyph unicode="%" horiz-adv-x="1986" d="M31 989q0 190 96 326q109 153 291 153q190 0 305 -143q104 -131 104 -330q0 -188 -104 -321q-113 -143 -299 -144q-176 0 -289 144q-104 133 -104 315zM211 997q0 -127 45 -215q57 -112 174 -112t174 108q45 86 45 215q0 137 -45 224q-59 113 -184 112q-113 0 -168 -115 q-41 -86 -41 -217zM547 -4l713 1454h163l-716 -1454h-160zM1143 453q0 190 102 323q113 147 297 148q176 0 295 -150q109 -137 109 -319q0 -180 -101 -320q-113 -156 -284 -155q-197 0 -312 141q-106 131 -106 332zM1325 459q0 -133 43 -221q57 -119 176 -119t176 110 q45 88 45 220q0 131 -49 223q-61 115 -184 114q-109 0 -164 -114q-43 -90 -43 -213z" />
<glyph unicode="&#x26;" horiz-adv-x="1499" d="M18 344q0 131 86 240q102 129 357 241q-51 76 -101 152q-53 92 -53 174q0 160 125 250q113 82 277 82q170 0 282 -80q129 -90 129 -254q0 -125 -86 -223q-59 -70 -192 -152l188 -233l199 217h260v-215h-166l-162 -176l131 -160h195v-211h-363l-159 194 q-125 -106 -236 -157q-133 -61 -276 -62q-180 0 -301 95q-133 102 -134 278zM279 350q0 -76 53 -113.5t131 -37.5q92 0 198.5 47t172.5 112l-230 297q-141 -72 -203 -118q-123 -94 -122 -187zM580 1155q0 -43 47 -115q23 -33 80 -102q82 43 118 80q58 57 58 127 q0 61 -51.5 98t-116.5 37q-51 0 -93 -36t-42 -89z" />
<glyph unicode="'" horiz-adv-x="352" d="M66 975v309q0 80 54 124t136 44h80v-78q-76 0 -102.5 -22.5t-26.5 -98.5v-28h129v-250h-270z" />
<glyph unicode="(" horiz-adv-x="618" d="M158 567q0 260 69.5 461t229.5 424h166q-100 -133 -170 -422q-61 -256 -62 -461q0 -244 58 -465q49 -193 163 -438l-149 -2q-154 182 -229.5 414.5t-75.5 488.5z" />
<glyph unicode=")" horiz-adv-x="618" d="M23 -336q119 270 165 440q60 217 60 467q0 209 -48 418t-143 402l-32 59h153q158 -203 232.5 -415t74.5 -466q0 -260 -73.5 -486t-233.5 -419h-155z" />
<glyph unicode="*" horiz-adv-x="882" d="M55 1096l54 176l249 -78v260h183v-252l239 82l60 -172l-248 -86l149 -213l-147 -104l-143 202l-148 -204l-147 106l143 209z" />
<glyph unicode="+" d="M86 496v211h498v499h213v-499h493v-211h-493v-496h-213v496h-498z" />
<glyph unicode="," horiz-adv-x="352" d="M53 0v250h269v-318q0 -92 -70 -131q-55 -31 -154 -30h-43v75h25q55 0 78.5 21.5t23.5 77.5l-4 55h-125z" />
<glyph unicode="-" horiz-adv-x="528" d="M43 358v248h465v-248h-465z" />
<glyph unicode="." horiz-adv-x="352" d="M53 0v250h269v-250h-269z" />
<glyph unicode="/" horiz-adv-x="749" d="M-84 -227l670 1677h194l-667 -1677h-197z" />
<glyph unicode="0" d="M49 725q0 305 166 520q182 236 479 236q287 0 465 -240q162 -217 162 -516q0 -311 -164 -524q-180 -233 -481 -234q-295 0 -469 238q-158 215 -158 520zM311 713q0 -215 78 -361q100 -186 297 -186q203 0 299 192q76 150 76 373q0 215 -76 365q-96 190 -291 190 q-203 0 -303 -194q-80 -156 -80 -379z" />
<glyph unicode="1" d="M352 1241v209h496v-1249h213v-203h-701v205h238v1038h-246z" />
<glyph unicode="2" d="M63 -2q0 324 234 537q78 72 434 278q234 135 234 270q0 104 -105 158q-84 43 -198 43q-178 0 -255 -92t-77 -274h-244q0 287 135 422t426 135q248 0 393 -82q188 -104 189 -334q0 -184 -201 -330q-199 -115 -395 -227q-227 -137 -268 -287h661v293h236v-508z" />
<glyph unicode="3" d="M0 483h246l4 -61q14 -135 147 -199q102 -49 260 -49q129 0 228 49q123 61 123 178q0 147 -164 215q-119 49 -289 50l-74 -2v196h66q168 0 244 29q127 49 127 184q0 111 -99 164q-80 43 -198 43q-137 0 -221.5 -73.5t-84.5 -211.5h-254q0 250 158 373q141 111 404 111 q227 0 370 -88q174 -106 174 -320q0 -92 -56 -170t-144 -121q141 -74 204 -147q82 -96 82 -238q0 -229 -221 -342q-176 -90 -428 -90q-270 0 -430 127q-174 137 -174 393z" />
<glyph unicode="4" d="M29 559l725 891h239v-864h305v-201h-303v-184h150v-205h-563v205h172v184h-600zM283 586h473v585z" />
<glyph unicode="5" d="M61 434h252q57 -125 141.5 -189.5t215.5 -64.5q139 0 241 68q121 80 121 209q0 127 -99 201.5t-231 74.5q-102 0 -188 -40t-162 -118l-223 78l68 795h1013v-391h-219v176h-598l-35 -399q86 53 181.5 82.5t193.5 29.5q223 0 381 -117q176 -129 176 -346q0 -248 -190 -387 q-170 -125 -428 -125q-238 0 -398 113q-172 121 -213 350z" />
<glyph unicode="6" d="M98 711q0 315 156 526q174 236 481 236q221 0 373 -121q162 -129 162 -340l-244 10q0 115 -100 186q-90 63 -209 64q-186 0 -289 -152q-90 -133 -90 -327q109 82 188 112q94 37 219 37q213 0 363 -117q164 -127 164 -333q0 -250 -162 -392q-154 -133 -405 -133 q-295 0 -459 232q-147 207 -148 512zM342 524q33 -156 117 -250q96 -108 246 -108q145 0 239 84t94 225q0 121 -94 195q-84 66 -209 65q-113 0 -219 -58.5t-174 -152.5z" />
<glyph unicode="7" d="M82 1065v387h1141l-2 -231q-184 -238 -303 -482q-125 -258 -183 -538h217v-203h-676v203h207q135 559 471 1034h-628v-170h-244z" />
<glyph unicode="8" d="M63 401q0 125 74 224q61 82 182 151q-90 45 -146 132.5t-56 187.5q0 199 190 303q154 84 369 84q223 0 379 -76q201 -98 200 -299q0 -111 -49 -190.5t-147 -145.5q119 -49 183.5 -142t64.5 -220q0 -244 -217 -355q-166 -84 -437 -84q-250 0 -401 88q-188 109 -189 342z M303 406q0 -129 137 -193q107 -49 252 -49q143 0 246 49q135 66 135 193q0 135 -129 202q-102 53 -252 54q-152 0 -254 -52q-135 -68 -135 -204zM356 1065q0 -106 115 -164q90 -45 211 -45q143 0 225 39q117 55 117 182q0 109 -115 162q-92 43 -213 43q-139 0 -223 -39 q-117 -55 -117 -178z" />
<glyph unicode="9" d="M96 979q0 231 158 367.5t393 136.5q309 0 475 -223q150 -201 150 -523q0 -342 -166 -538q-180 -213 -516 -213q-184 0 -334 127q-158 135 -158 317v10l246 -10q20 -129 100 -189.5t213 -60.5q186 0 287 154q86 133 86 332q-76 -74 -184.5 -114t-218.5 -40 q-221 0 -371 121q-160 129 -160 346zM330 987q0 -117 86 -192.5t207 -75.5q113 0 223 58.5t182 152.5q-23 147 -123 250q-107 108 -252 108q-131 0 -227 -86t-96 -215z" />
<glyph unicode=":" horiz-adv-x="440" d="M145 0v248h267v-248h-267zM145 627v252h269v-252h-269z" />
<glyph unicode=";" horiz-adv-x="440" d="M145 0v248h267v-295q0 -102 -60 -146q-51 -37 -157 -36h-45v75h16q59 0 83.5 20.5t24.5 78.5l-4 55h-125zM145 627v252h267v-252h-267z" />
<glyph unicode="&#x3c;" horiz-adv-x="1241" d="M94 455v127l1041 471v-140l-871 -395l871 -395v-139z" />
<glyph unicode="=" d="M0 301v213h1378v-213h-1378zM0 692v211h1378v-211h-1378z" />
<glyph unicode="&#x3e;" horiz-adv-x="1241" d="M106 -16v139l871 395l-871 395v140l1041 -471v-127z" />
<glyph unicode="?" horiz-adv-x="1013" d="M66 1006q0 477 475 477q203 0 336 -101q150 -113 149 -309q0 -172 -121 -283.5t-295 -111.5l-28 -301l-136 10l-32 510q51 -16 77.5 -21.5t57.5 -5.5q88 0 158 52q80 59 79 143q0 106 -71.5 162.5t-182.5 56.5q-106 0 -172.5 -64.5t-66.5 -168.5l4 -43zM375 0v246h274 v-246h-274z" />
<glyph unicode="@" horiz-adv-x="2078" d="M301 739q0 317 226.5 543.5t545.5 226.5q285 0 490 -174q215 -184 215 -465q0 -207 -140 -391q-152 -201 -350 -200q-57 0 -94 34.5t-37 94.5q-53 -57 -117.5 -93t-132.5 -36q-131 0 -216 97t-85 230q0 215 127 383q137 182 346 182q80 0 140.5 -42t95.5 -117l41 127h141 q-76 -252 -149 -504q-14 -53 -25.5 -101.5t-11.5 -62.5q0 -25 5 -42t38 -17q123 0 213 163q78 143 78 279q0 240 -164 384t-408 144q-270 0 -446 -190.5t-176 -464.5q0 -270 182 -454.5t457 -184.5q143 0 275 61.5t220 172.5h137q-100 -168 -270 -264.5t-369 -96.5 q-328 0 -555 225.5t-227 552.5zM774 625q0 -84 45 -141.5t127 -57.5q125 0 219 145q86 133 86 265q0 72 -48 130t-120 58q-131 0 -225 -137q-84 -123 -84 -262z" />
<glyph unicode="A" horiz-adv-x="1587" d="M-4 -4v219h158l409 1024h-162v211h789v-211h-158l402 -1028h153v-215h-637v219h201l-90 236h-545l-88 -236h211v-219h-643zM596 672h385l-193 506z" />
<glyph unicode="B" d="M10 0v219h183v1020h-181v213h748q211 0 350 -80q172 -100 172 -295q0 -111 -53 -188q-45 -66 -148 -137q121 -59 177.5 -137t56.5 -207q0 -197 -141 -308q-129 -100 -332 -100h-832zM467 215h285q123 0 196 39q96 51 96 164q0 111 -80.5 171t-195.5 60h-301v-434z M467 870h309q100 0 160 43q70 51 70 148q0 86 -93 133q-74 37 -170 37h-276v-361z" />
<glyph unicode="C" horiz-adv-x="1456" d="M55 725q0 317 198 534.5t513 217.5q135 0 235.5 -41t208.5 -136v140h207v-582h-207v150q-84 125 -190.5 183t-253.5 58q-78 0 -164 -47q-74 -41 -136.5 -110.5t-89 -163.5t-26.5 -207q0 -223 121 -369q128 -155 347 -155h3q143 0 262 79q100 68 191 201l168 -151 q-123 -170 -262 -258q-160 -100 -353 -101q-346 0 -559 205t-213 553z" />
<glyph unicode="D" horiz-adv-x="1544" d="M18 -2v219h185v1022h-180v213h608q385 0 606 -160q254 -184 254 -555q0 -336 -206 -535.5t-533 -199.5q-25 0 -75 -2t-75 -2h-584zM475 215h189q264 0 402 128t138 390q0 242 -140 374t-384 132h-205v-1024z" />
<glyph unicode="E" horiz-adv-x="1323" d="M23 0v221h182v1018h-182v215h1230v-446h-262v231h-510v-346h398v-236h-398v-438h541v268h256v-487h-1255z" />
<glyph unicode="F" horiz-adv-x="1234" d="M14 -2v219h191v1024h-187v211h1223v-448h-254v233h-506v-346h402v-238h-402v-436h224v-219h-691z" />
<glyph unicode="G" horiz-adv-x="1544" d="M53 731q0 322 204 534t525 212q246 0 420 -174v137h209v-531h-209v109q-88 111 -174 166q-104 67 -225 67h-4q-211 0 -338 -157q-117 -145 -117 -363q0 -199 109 -358q123 -182 313 -183q178 0 274.5 69t139.5 239h-478v233l783 -2l-6 -117q0 -266 -207 -456.5 t-479 -190.5q-334 0 -537 215t-203 551z" />
<glyph unicode="H" horiz-adv-x="1632" d="M23 -4v217h180v1020h-178v215h639v-217h-183v-344h666v346h-182v215h637v-219h-179v-1018h176v-217h-634v219h180v438h-666v-438h183v-217h-639z" />
<glyph unicode="I" horiz-adv-x="661" d="M23 -2v217h180v1018h-178v217h639v-217h-185v-1020h183v-215h-639z" />
<glyph unicode="J" horiz-adv-x="749" d="M-35 -37l86 211q27 -25 61.5 -40t69.5 -15q66 0 103 52t37 122v940h-211v217h663v-217h-176v-844q0 -233 -70 -350q-90 -152 -307 -152q-74 0 -128 17.5t-128 58.5z" />
<glyph unicode="K" horiz-adv-x="1501" d="M23 -2v219h182v1020h-182v215h630v-215h-178v-455q104 92 246 226q123 115 242 229h-193v215h660v-217h-140q-123 -109 -309 -283q-133 -123 -184 -174l526 -563h172v-219h-725v221h193l-488 508v-508h176v-219h-628z" />
<glyph unicode="L" horiz-adv-x="1191" d="M23 1235v215h679v-217h-221v-1018h437v268h249v-481h-1142v213h178v1020h-180z" />
<glyph unicode="M" horiz-adv-x="1853" d="M18 -2v219h185v1018h-183v217h607q35 -102 102.5 -291.5t104.5 -310.5q53 -172 77 -307l52 200q37 150 112 355q66 176 131 352h615v-219h-183v-1018h183v-213h-633v215h190l-2 1004q-31 -90 -71 -201q-57 -154 -74 -199l-240 -676l-172 2q-61 178 -121 359 q-37 111 -125 358q-72 205 -133 357v-1004h178v-217h-600z" />
<glyph unicode="N" horiz-adv-x="1632" d="M23 -2v219h180v1020h-180v215l509 -2l668 -1063v848h-207v217h629v-223h-184v-1233l-281 -2l-704 1118v-897h184v-217h-614z" />
<glyph unicode="O" horiz-adv-x="1632" d="M53 713q0 326 213 545t537 219q334 0 551 -205t217 -539q0 -332 -209 -549t-541 -217q-330 0 -549 209t-219 537zM348 735q0 -233 119 -383q129 -162 356 -162q215 0 342 175q115 156 115 378q0 215 -131 361q-136 151 -347 151h-3q-203 0 -332 -161q-119 -150 -119 -359 z" />
<glyph unicode="P" horiz-adv-x="1280" d="M23 0v217h180v1020h-180v215h716q248 0 385 -82q172 -102 172 -334q0 -287 -215 -385q-139 -65 -449 -65h-9h-144v-369h209v-217h-665zM479 811h283q123 0 192 41q90 53 90 168q0 123 -96 174q-72 39 -207 39h-262v-422z" />
<glyph unicode="Q" horiz-adv-x="1632" d="M55 723q0 311 213 536.5t520 225.5q358 0 567.5 -199t209.5 -559q0 -305 -172 -496q-156 -174 -465 -258q72 -23 123 -35t108 -12q59 0 126 14.5t136 41.5l-118 -271q-18 -4 -59.5 -13t-86.5 -9q-92 0 -211 37q-270 84 -346 84q-51 0 -87 -8.5t-105 -30.5l-50 102 q82 57 127 78q59 29 144 43q-260 55 -417 258t-157 471zM338 709q0 -221 130 -373t349 -152q217 0 350 174q123 160 123 383q0 231 -125 375q-133 152 -360 152q-211 0 -344 -178q-123 -164 -123 -381z" />
<glyph unicode="R" horiz-adv-x="1411" d="M18 1237v213h748q221 0 354 -78q166 -96 166 -301q0 -133 -57 -209q-49 -66 -178 -129q96 -43 137 -131q33 -74 33 -192l-7 -197h199v-217h-471v346q0 182 -62.5 238.5t-248.5 56.5h-152v-420h185v-219h-644v219h183v1020h-185zM479 860h303q102 0 160 41q68 47 68 148 q0 98 -54.5 142t-154.5 44h-322v-375z" />
<glyph unicode="S" horiz-adv-x="1323" d="M57 0v539h211l-2 -140q78 -92 193.5 -150.5t234.5 -58.5q111 0 193 41q106 53 106 152q0 145 -235 188q-406 76 -436 88q-238 96 -238 371q0 211 154 334q141 113 358 113q119 0 211 -39q80 -33 182 -117v121h201v-537h-199l-2 107q-80 123 -176 179t-240 56 q-90 0 -166.5 -50t-76.5 -138q0 -127 241 -176q397 -80 449 -103q242 -102 242 -362q0 -209 -170 -338q-154 -117 -371 -117q-135 0 -251 41t-202 131v-135h-211z" />
<glyph unicode="T" horiz-adv-x="1280" d="M-4 918v534h1294v-537h-264v322h-244v-1020h226v-219h-734v219h230v1022h-244v-321h-264z" />
<glyph unicode="U" horiz-adv-x="1587" d="M23 1239v213h612v-215l-184 2l2 -704q0 -195 66.5 -265.5t258.5 -70.5q221 0 297 62.5t76 182.5v791h-186v217h596v-215h-148v-784q0 -276 -170 -392q-141 -94 -432 -94q-301 0 -442 78q-195 106 -195 383v811h-151z" />
<glyph unicode="V" horiz-adv-x="1501" d="M0 1239v213h651v-215h-198l188 -580q63 -186 129 -372q8 20 33 104q16 53 33 105q61 188 126.5 372.5t131.5 370.5h-201v215h608v-217h-143l-447 -1237h-299q-90 250 -149 414q-106 295 -152 413q-27 70 -157 414h-154z" />
<glyph unicode="W" horiz-adv-x="2160" d="M6 1233v219h600v-215h-166l228 -958q45 195 75 319q45 182 82 320q12 47 88 319h-168v215h740v-217h-172l219 -956q37 176 73.5 326.5t77.5 309.5q74 295 80 320h-164v215h553v-217l-135 2l-344 -1241l-311 -2q-133 545 -266 1089q-33 -168 -83 -355t-98 -368 q-68 -250 -90 -362h-329q-53 207 -104.5 407.5t-110.5 419.5q-33 121 -117 410h-158z" />
<glyph unicode="X" horiz-adv-x="1632" d="M-4 -2v217h158l485 533l-442 489h-164v215h692v-215h-182l284 -319l285 319h-201v215h684v-221h-157l-447 -471l490 -547h147v-215h-684v217h197l-328 393l-358 -393h204v-217h-663z" />
<glyph unicode="Y" horiz-adv-x="1544" d="M-4 1241v211h643v-215h-170l315 -389l310 389h-189v215h621v-215h-127l-486 -600v-420h248v-219h-760v219h254v387q-88 106 -174 215q-98 121 -176 213q-66 78 -182 209h-127z" />
<glyph unicode="Z" horiz-adv-x="1234" d="M18 -4v205l863 1034h-559v-268h-263v483h1178v-205l-872 -1028h630v262h265v-483h-1242z" />
<glyph unicode="[" horiz-adv-x="661" d="M190 -334v1784h492v-125h-276v-1534h272v-125h-488z" />
<glyph unicode="\" horiz-adv-x="569" d="M-35 1509h135l504 -1548h-137z" />
<glyph unicode="]" horiz-adv-x="661" d="M-2 -209h276v1536h-272v127h487v-1786h-491v123z" />
<glyph unicode="^" horiz-adv-x="0" d="M-379 1548l207 262h346l201 -264h-172l-205 146l-186 -144h-191z" />
<glyph unicode="_" horiz-adv-x="1138" d="M0 -154h1139v-102h-1139v102z" />
<glyph unicode="`" horiz-adv-x="0" d="M-301 1329h242l153 -309h-162z" />
<glyph unicode="a" horiz-adv-x="970" d="M37 260q0 143 107.5 231.5t254.5 88.5q49 0 102.5 -12.5t106.5 -32.5v22q0 78 -53 114t-135 36q-41 0 -101.5 -12.5t-103.5 -28.5l-106 172q92 33 167.5 48t163.5 15q225 0 314 -113q77 -97 77 -321v-6l-6 -283h142v-180h-332v59q-61 -35 -135 -57.5t-144 -22.5 q-129 0 -224 78t-95 205zM266 279q0 -59 56 -93q44 -26 110 -26q63 0 115 28q63 35 63 95q0 55 -55 83.5t-115 28.5q-66 0 -112 -24q-61 -33 -62 -92z" />
<glyph unicode="b" horiz-adv-x="1146" d="M14 0v182h146v1086h-142v182h359v-653q117 63 139 73q74 31 156 31q195 0 316.5 -128t121.5 -324q0 -201 -129 -334t-328 -133q-76 0 -150.5 34.5t-133.5 92.5v-109h-355zM375 430q0 -98 75.5 -170t174.5 -72q113 0 186.5 68t73.5 178q0 109 -72 182.5t-180 73.5 q-117 0 -187.5 -72.5t-70.5 -187.5z" />
<glyph unicode="c" horiz-adv-x="970" d="M177 771q136 132 329 132q82 0 133 -20q25 -10 117 -66v76h184v-387h-186v80q-47 72 -103.5 103.5t-140.5 31.5q-100 0 -165.5 -80t-65.5 -184q0 -127 78.5 -210t205.5 -83q80 0 150 53q59 45 108 125l154 -127q-51 -111 -180 -178q-117 -61 -248 -62q-213 0 -357 129 q-149 134 -149 344q0 191 136 323z" />
<glyph unicode="d" horiz-adv-x="1146" d="M51 412q0 205 122 347t325 142q78 0 149 -31q53 -23 135 -79v479h-176v182h393v-1270h131v-184h-348l-2 121q-68 -74 -140.5 -105.5t-172.5 -31.5q-170 0 -293 129t-123 301zM287 432q0 -96 63.5 -172t159.5 -76q113 0 189.5 66.5t76.5 179.5q0 109 -61.5 189.5 t-167.5 80.5q-121 0 -190.5 -73.5t-69.5 -194.5z" />
<glyph unicode="e" horiz-adv-x="1015" d="M43 444q0 199 139.5 328t339.5 129q160 0 279 -91t160 -247q8 -35 13 -90t5 -102h-707q20 -90 100.5 -150.5t176.5 -60.5t153 37q70 59 121 100l168 -104q-102 -121 -202.5 -168.5t-256.5 -47.5q-211 0 -350 129.5t-139 337.5zM258 539h473q0 78 -68.5 134t-148.5 56 q-92 0 -163.5 -51t-92.5 -139z" />
<glyph unicode="f" horiz-adv-x="618" d="M23 0v182h155v510h-153v185h155v335q0 123 72 193t192 70q39 0 97.5 -14.5t89.5 -20.5l-2 -193q-70 37 -125 37q-49 0 -76 -28.5t-27 -75.5v-303h230v-185h-230v-514h197v-178h-575z" />
<glyph unicode="g" horiz-adv-x="1103" d="M45 442q0 180 119 315.5t297 135.5q84 0 149 -31q20 -10 129 -80v95h355v-187h-144v-651q0 -197 -101 -304.5t-296 -107.5q-145 0 -226 29t-198 119l188 86q45 -25 96.5 -40.5t100.5 -15.5q102 0 157.5 52.5t55.5 154.5v88q-96 -51 -139 -69q-74 -33 -154 -33 q-178 0 -283.5 131t-105.5 313zM270 420q0 -84 71 -150.5t157 -66.5q100 0 167.5 71.5t67.5 171.5q0 96 -63.5 170t-157.5 74q-115 0 -178.5 -75.5t-63.5 -194.5z" />
<glyph unicode="h" horiz-adv-x="1146" d="M16 -2v184h144v1090h-144v180h363v-668q80 51 172 82t180 31q137 0 203 -82q59 -76 59 -217v-420h146v-178h-361v563q0 55 -26.5 94t-79.5 39q-74 0 -150 -26q-49 -16 -141 -64v-428h158v-180h-523z" />
<glyph unicode="i" horiz-adv-x="528" d="M18 0v186h158v506h-153v185h366v-693h150v-184h-521zM150 1087v240h241v-240h-241z" />
<glyph unicode="j" horiz-adv-x="485" d="M-37 -324l39 199q37 -33 80 -33q35 0 54.5 39t19.5 76v739h-154v181h369v-936q0 -139 -64 -215q-70 -84 -207 -84q-23 0 -67.5 12t-69.5 22zM127 1087v238h244v-238h-244z" />
<glyph unicode="k" horiz-adv-x="1103" d="M25 -2v184h143v1090h-141v180h362v-967l289 217h-172v177h551v-181h-90l-308 -223l269 -293h168v-186h-297l-412 457v-277h158v-178h-520z" />
<glyph unicode="l" horiz-adv-x="528" d="M16 1270v180h363v-1272h160v-180h-521v184h146v1088h-148z" />
<glyph unicode="m" horiz-adv-x="1589" d="M14 -2v188h156v504h-154v182h367l2 -90q70 53 137 84q80 37 156 37q139 0 199 -117q76 53 147 82q84 35 164 35q115 0 178 -80q57 -72 57 -190v-455h144v-182h-361l-2 606q0 94 -98 94q-45 0 -102.5 -29.5t-94.5 -64.5v-426h158v-180h-379v590q0 53 -22.5 81.5 t-75.5 28.5q-39 0 -80 -16q-23 -8 -123 -72v-426h162v-184h-535z" />
<glyph unicode="n" horiz-adv-x="1146" d="M16 -2v186h158v508h-156v185h367l2 -89q84 49 169 78t173 29q131 0 199 -90q59 -80 59 -217v-408h148v-180h-363v526q0 86 -20 121q-27 47 -109 47q-70 0 -162 -47q-47 -25 -92 -49v-418h160v-182h-533z" />
<glyph unicode="o" horiz-adv-x="1058" d="M181 773q140 130 351 130t354.5 -131t143.5 -342q0 -197 -144.5 -325t-346.5 -128q-207 0 -349 123q-149 128 -149 331q0 212 140 342zM270 442q0 -119 74 -204.5t191 -85.5t190.5 86t73.5 204q0 113 -77 198t-190 85t-187.5 -84t-74.5 -199z" />
<glyph unicode="p" horiz-adv-x="1146" d="M-2 -195h160v891h-144v185h357v-107q57 55 132 89t150 34q205 0 329 -134t124 -339q0 -178 -121 -311t-297 -133q-84 0 -164 32q-57 25 -147 84v-293h174v-176h-553v178zM373 438q0 -109 77.5 -182.5t186.5 -73.5q104 0 176 74t72 176q0 109 -72 184.5t-180 75.5 q-102 0 -181 -76.5t-79 -177.5z" />
<glyph unicode="q" horiz-adv-x="1146" d="M43 438q0 193 130 329t323 136q84 0 153 -35q51 -27 131 -92v101h344v-183h-133v-893h131v-176h-532v180h182l2 299q-82 -66 -135 -90q-70 -34 -153 -34h-5q-188 0 -313 133t-125 325zM285 414q0 -92 72.5 -161t168.5 -69q109 0 179.5 75t70.5 185q0 102 -70.5 179 t-170.5 77q-121 0 -185.5 -80.5t-64.5 -205.5z" />
<glyph unicode="r" horiz-adv-x="706" d="M18 -2v186h154v504h-149v189h364l2 -148q80 100 136.5 134t113.5 34q41 0 82 -18q0 -49 -2 -76t-14 -139l-37 4q-94 0 -160 -50q-39 -29 -117 -122v-314h162v-184h-535z" />
<glyph unicode="s" horiz-adv-x="794" d="M18 0v322h179v-76q102 -53 110 -58q57 -26 117 -26h4q51 0 88 16q51 23 51 68q0 55 -263 112.5t-263 262.5q0 127 87 205.5t216 78.5q76 0 116 -13t109 -58v47h185v-301h-183v71q-55 43 -98 66q-55 28 -109 28h-4q-47 0 -85.5 -19t-38.5 -60q0 -68 143 -97 q221 -45 268 -67q145 -68 146 -228q0 -137 -95.5 -219t-236.5 -82q-74 0 -125 15.5t-133 56.5v-45h-185z" />
<glyph unicode="t" horiz-adv-x="573" d="M0 694v185h147v338l228 79v-419h211v-185h-224v-424q0 -94 89 -94q35 0 61.5 7t67.5 26l2 -193q-51 -14 -76 -20q-76 -20 -129 -21q-113 0 -174.5 55.5t-61.5 166.5v499h-141z" />
<glyph unicode="u" horiz-adv-x="1146" d="M6 692v185h359v-555q0 -70 32.5 -114t102.5 -44q84 0 174 72q31 25 86 79v377h-158v185h375v-699h158v-182h-369v125q-80 -63 -172 -104.5t-184 -41.5q-129 0 -193.5 84t-64.5 217v416h-146z" />
<glyph unicode="v" horiz-adv-x="1146" d="M-2 694v185h534v-185l-151 2q63 -143 76 -174q98 -221 125 -291q102 231 206 463h-161v185h532v-185h-137l-346 -719h-197l-344 719h-137z" />
<glyph unicode="w" horiz-adv-x="1499" d="M0 696v185h473v-185h-125q8 -23 84 -266q20 -66 53 -160l189 426h-115v185h414v-185h-101l152 -424l152 424h-123v185h444v-185h-113l-286 -721l-152 2l-98 246q-57 147 -86 250q-47 -117 -109 -250q-18 -41 -118 -246h-156l-273 719h-106z" />
<glyph unicode="x" horiz-adv-x="1146" d="M-2 -2v180h141l287 283l-256 235h-139v181h508v-179h-105l137 -141l144 139h-86v181h489v-181h-143l-250 -235l297 -285h127v-174h-545v174h129l-162 174l-170 -170h121v-182h-524z" />
<glyph unicode="y" horiz-adv-x="1103" d="M-4 696v185h526v-185h-147q88 -203 178 -405q8 -27 13 -43.5t16 -36.5l194 483h-149v187h485v-187h-123l-207 -467q-100 -233 -120 -274q-80 -156 -175 -234q-117 -96 -280 -96q-37 0 -64.5 4t-46.5 6v203q29 -6 71 -13t56 -7q88 0 150 51q45 37 96 129l-344 700h-129z " />
<glyph unicode="z" horiz-adv-x="970" d="M18 2v170l623 524h-391v-153h-213v334h895v-185l-606 -520h415v203h220v-373h-943z" />
<glyph unicode="{" horiz-adv-x="684" d="M86 479v123q113 0 147 137q16 66 17 230l-2 88q0 193 22 268q45 154 191 154h137v-133h-90q-55 0 -74.5 -51.5t-19.5 -116.5v-232l-2 -117q0 -88 -47 -172q-53 -94 -132 -114q113 -37 154 -170q27 -88 27 -242l-2 -178q0 -92 10 -135q20 -86 86 -86h90v-133h-137 q-96 0 -152.5 81.5t-56.5 182.5v350q0 96 -35 170q-45 96 -131 96z" />
<glyph unicode="|" horiz-adv-x="532" d="M193 -39v1548h149v-1548h-149z" />
<glyph unicode="}" horiz-adv-x="684" d="M86 -268h90q63 0 84 84q10 43 10 137l-2 176q0 156 27 242q41 133 156 168q-78 23 -129.5 112.5t-51.5 175.5v351q0 70 -14 106q-23 61 -80 62h-90v133h137q131 0 180 -131q33 -86 33 -261q0 -33 -1 -62.5t-1 -55.5q0 -162 17 -228q35 -139 147 -139v-123q-84 0 -129 -96 q-37 -78 -37 -170v-350q0 -102 -51 -178q-59 -86 -158 -86h-137v133z" />
<glyph unicode="~" horiz-adv-x="0" d="M-352 1559q0 109 39 178q49 90 149 90q80 0 170 -56.5t115 -56.5q39 0 61 33q16 25 23 68h157q0 -104 -51 -185q-59 -92 -159 -92q-86 0 -175.5 64.5t-107.5 64.5q-45 0 -60.5 -35t-15.5 -88h-143z" />
<glyph horiz-adv-x="1124" d="M31 270v109h372l154 276h-526v109h587l181 328l96 -58l-150 -270h328v-109h-387l-156 -276h543v-109h-602l-178 -319l-98 55l147 264h-311z" />
<glyph horiz-adv-x="1460" d="M49 530q0 113 84 193t195 80q100 0 207 -70q55 -35 174 -143q115 102 172 141q108 72 206 72q115 0 198 -81t83 -194q0 -111 -79 -195.5t-191 -84.5q-90 0 -168 39q-43 23 -221 170q-139 -123 -174 -146q-100 -66 -218 -65q-111 0 -189.5 86t-78.5 198zM154 512 q0 -72 55 -120t129 -48q88 0 170 57q29 20 139 123q-98 84 -145 115q-94 61 -170 61t-127 -55t-51 -133zM776 524q104 -98 137 -123q84 -59 170 -59q74 0 130.5 50t56.5 122q0 74 -52.5 130t-125.5 56q-76 0 -170 -61q-47 -31 -146 -115z" />
<glyph horiz-adv-x="1253" d="M12 0l635 1366l561 -1366h-1196zM143 98h818l-386 928z" />
<glyph horiz-adv-x="1011" d="M35 750l387 731h119l385 -731l-385 -750h-119zM156 750l325 -644l326 644l-326 622z" />
<glyph horiz-adv-x="1454" />
<glyph unicode="&#xa1;" horiz-adv-x="440" d="M55 -4v430q0 141 19.5 314t40.5 337h145q12 -129 27 -237q35 -279 35 -402v-442h-267zM55 1206v246h271v-246h-271z" />
<glyph unicode="&#xa2;" horiz-adv-x="970" d="M41 451q0 166 109.5 291.5t275.5 154.5v115h192v-123q37 -12 70 -31q45 -29 68 -41v76h184v-387h-186l-2 80q-29 43 -59.5 73.5t-74.5 45.5l-2 -533q66 16 119 64q43 39 86 106l158 -127q-45 -96 -150 -160q-94 -57 -211 -73v-164h-192v170q-174 35 -279.5 160.5 t-105.5 302.5zM279 455q0 -82 38.5 -152.5t108.5 -105.5v505q-68 -29 -107.5 -98t-39.5 -149z" />
<glyph unicode="&#xa3;" horiz-adv-x="1191" d="M25 4v203h188v391h-188v211h186v117q0 225 47 325q63 137 256 201q78 25 158 25q180 0 290.5 -83t165.5 -257l-229 -86q-14 90 -75.5 151.5t-151.5 61.5q-104 0 -154.5 -77t-50.5 -186v-190h258v-213h-262v-389h477v272h242v-477h-1157z" />
<glyph unicode="&#xa7;" horiz-adv-x="1013" d="M43 743q0 111 65.5 188t174.5 109q-25 33 -41.5 85.5t-16.5 97.5q0 117 89 186.5t210 69.5t213 -54q106 -61 135 -172l-184 -100q0 74 -40 118t-113 44q-35 0 -62 -29t-27 -61q0 -80 140 -217q242 -240 258 -258q141 -166 141 -308q0 -102 -66.5 -178t-170.5 -108 q47 -78 57 -101q27 -57 26 -112q0 -129 -100 -201q-90 -63 -223 -64q-145 0 -220 69t-108 216l191 53l-2 -18q0 -66 32.5 -112t98.5 -46q47 0 82.5 24.5t35.5 69.5q0 66 -147 211q-244 242 -278 283q-150 178 -150 315zM250 750q0 -96 215 -310q41 -40 162 -153 q70 18 100 49q39 37 39 106q0 100 -207 308q-14 16 -160 153q-70 -10 -109.5 -48t-39.5 -105z" />
<glyph unicode="&#xa8;" horiz-adv-x="0" d="M-322 1049v243h248v-243h-248zM80 1049v245h246v-245h-246z" />
<glyph unicode="&#xa9;" horiz-adv-x="1617" d="M100 655q0 285 200.5 485.5t485.5 200.5t486 -200.5t201 -485.5t-201 -485.5t-486 -200.5t-485.5 201t-200.5 485zM180 655q0 -250 178 -428t428 -178t428.5 178.5t178.5 427.5q0 250 -178.5 428.5t-428.5 178.5t-428 -178.5t-178 -428.5zM416 639q0 164 104.5 279.5 t265.5 115.5q37 0 78 -10q109 -27 131 -27q39 0 47 31h39l9 -254h-41q-16 90 -81 148.5t-157 58.5q-125 0 -201 -111q-68 -98 -67 -229q0 -139 63 -219q72 -90 207 -90q100 0 166 39q8 6 92 65l23 -33q-74 -74 -131 -106q-76 -41 -166 -41q-172 0 -276.5 106.5t-104.5 276.5 z" />
<glyph unicode="&#xab;" horiz-adv-x="837" d="M41 487l246 336h215l-250 -342l244 -342h-203zM362 485l248 338h215l-254 -342l250 -342h-209z" />
<glyph unicode="&#xac;" horiz-adv-x="1460" d="M31 463v108h1321v-571h-111v463h-1210z" />
<glyph unicode="&#xad;" horiz-adv-x="528" d="M43 358v248h465v-248h-465z" />
<glyph unicode="&#xae;" horiz-adv-x="1617" d="M98 645q0 285 201 485.5t485 200.5q283 0 484.5 -201.5t201.5 -484.5t-200.5 -483.5t-485.5 -200.5q-283 0 -484.5 199.5t-201.5 484.5zM178 643q0 -252 178.5 -428t427.5 -176q250 0 428.5 178t178.5 428t-178.5 428t-430.5 178t-428 -178t-176 -430zM457 299v37 q35 0 59 8q39 14 39 43v574q0 37 -13.5 48t-43.5 11h-31v35h340q113 0 180 -35q90 -47 90 -150q0 -86 -57 -143t-143 -57l239 -305q23 -29 70 -29v-37h-189l-264 352h-51v-258q0 -33 26.5 -45t65.5 -12v-37h-317zM680 973l2 -277q111 0 170 25q92 39 92 135q0 80 -35 112.5 t-118 41.5l-68 4q-16 0 -29.5 -12.5t-13.5 -28.5z" />
<glyph unicode="&#xb0;" horiz-adv-x="819" d="M98 1061q0 121 88 209t211 88t211 -86t88 -211q0 -123 -89 -210t-210 -87q-123 0 -211 86t-88 211zM178 1061q0 -90 63.5 -153.5t155.5 -63.5q88 0 153.5 63.5t65.5 153.5q0 88 -65.5 153.5t-155.5 65.5q-92 0 -154.5 -64.5t-62.5 -154.5z" />
<glyph unicode="&#xb1;" horiz-adv-x="1124" d="M20 0v109h1051v-109h-1051zM20 700v111h472v471h108v-471h471v-111h-471v-469h-108v469h-472z" />
<glyph unicode="&#xb4;" horiz-adv-x="0" d="M-98 1020l153 311h244l-242 -311h-155z" />
<glyph unicode="&#xb5;" horiz-adv-x="1179" d="M66 -303q0 53 16 121q39 160 39 200v975h172v-659q0 -100 41 -160q49 -70 145 -70q66 0 131.5 45.5t91.5 106.5v737h172v-762q0 -59 26 -113.5t79 -54.5q55 0 78 46q18 63 30 94l39 -2q-27 -104 -77 -164q-61 -70 -164 -70q-86 0 -129 58q-31 43 -54 141 q-45 -76 -136 -137.5t-173 -61.5q-61 0 -108 29q-57 43 -92 67v-45q0 -51 43 -198q23 -78 22 -121q0 -55 -20 -92q-27 -49 -76 -49q-47 0 -71.5 44t-24.5 95z" />
<glyph unicode="&#xb6;" horiz-adv-x="1366" d="M180 1038q0 197 126 302.5t327 105.5h471v-111h-70v-1677h-119v1677h-294v-1677h-119v995q-152 25 -237 128.5t-85 256.5z" />
<glyph unicode="&#xb7;" horiz-adv-x="352" d="M33 604q0 66 49 113t117 47q66 0 110.5 -49t44.5 -115q0 -63 -49 -112.5t-115 -49.5q-68 0 -112.5 49.5t-44.5 116.5z" />
<glyph unicode="&#xb8;" horiz-adv-x="0" d="M-102 -82l211 2l6 -184q0 -100 -33 -144q-39 -51 -139 -51h-43v56h18q45 0 66.5 14t21.5 57v51h-108v199z" />
<glyph unicode="&#xbb;" horiz-adv-x="837" d="M27 141l254 342l-248 340h205l258 -342l-256 -340h-213zM350 141l256 342l-246 342h203l254 -346l-254 -338h-213z" />
<glyph unicode="&#xbf;" horiz-adv-x="1013" d="M2 399q0 172 125 271q102 82 289 112l24 295l140 -10l32 -508q-37 12 -70.5 19.5t-70.5 7.5q-82 0 -157.5 -56.5t-75.5 -136.5q0 -104 69.5 -165.5t177.5 -61.5q102 0 176 64.5t74 166.5l-6 49h232q0 -242 -120 -360.5t-364 -118.5q-209 0 -338 109q-137 117 -137 323z M375 1206v246h270v-246h-270z" />
<glyph unicode="&#xc0;" horiz-adv-x="1587" d="M-4 -4v219h158l409 1024h-162v211h789v-211h-158l402 -1028h153v-215h-637v219h201l-90 236h-545l-88 -236h211v-219h-643zM434 1808h332l108 -270h-167zM596 672h385l-193 506z" />
<glyph unicode="&#xc1;" horiz-adv-x="1587" d="M-4 -4v219h158l409 1024h-162v211h789v-211h-158l402 -1028h153v-215h-637v219h201l-90 236h-545l-88 -236h211v-219h-643zM596 672h385l-193 506zM668 1546l110 269h336l-278 -269h-168z" />
<glyph unicode="&#xc2;" horiz-adv-x="1587" d="M-4 -4v219h158l409 1024h-162v211h789v-211h-158l402 -1028h153v-215h-637v219h201l-90 236h-545l-88 -236h211v-219h-643zM391 1548l207 262h348l201 -264h-176l-203 146l-186 -144h-191zM596 672h385l-193 506z" />
<glyph unicode="&#xc3;" horiz-adv-x="1587" d="M-4 -4v219h158l409 1024h-162v211h789v-211h-158l402 -1028h153v-215h-637v219h201l-90 236h-545l-88 -236h211v-219h-643zM420 1559q0 113 37 180q47 88 151 88q74 0 164 -56.5t131 -56.5q33 0 53 35q14 25 19 66h158q0 -104 -52 -185q-59 -92 -157 -92 q-88 0 -178.5 64.5t-106.5 64.5q-45 0 -60.5 -35t-15.5 -88h-141zM596 672h385l-193 506z" />
<glyph unicode="&#xc4;" horiz-adv-x="1587" d="M-4 -4v219h158l409 1024h-162v211h789v-211h-158l402 -1028h153v-215h-637v219h201l-90 236h-545l-88 -236h211v-219h-643zM432 1556v244h246v-244h-246zM596 672h385l-195 512zM911 1556v244h242v-244h-242z" />
<glyph unicode="&#xc5;" horiz-adv-x="1587" d="M-4 -4v219h158l409 1024h-162v211h789v-211h-158l402 -1028h153v-215h-637v219h201l-90 236h-545l-88 -236h211v-219h-643zM596 672h385l-193 506zM598 1698q0 86 61.5 145.5t149.5 59.5q84 0 143.5 -61.5t59.5 -145.5q0 -82 -61.5 -141.5t-143.5 -59.5 q-84 0 -146.5 60.5t-62.5 142.5zM717 1704q0 -31 23.5 -60.5t52.5 -29.5q41 0 70.5 20.5t29.5 61.5t-23.5 66.5t-62.5 25.5q-33 0 -61.5 -24.5t-28.5 -59.5z" />
<glyph unicode="&#xc6;" horiz-adv-x="2162" d="M0 0v227h172l430 1014h-178v207h1640v-440h-252v227h-509v-358h387v-220h-394v-442h535v270h264v-485h-1259v221h190v436h-393l-178 -436h202v-221h-657zM737 903h283v332h-148z" />
<glyph unicode="&#xc7;" horiz-adv-x="1456" d="M55 725q0 317 198 534.5t513 217.5q135 0 235.5 -41t208.5 -136v140h207v-582h-207v150q-84 125 -190.5 183t-253.5 58q-78 0 -164 -47q-74 -41 -136.5 -110.5t-89 -163.5t-26.5 -207q0 -223 121 -369q129 -156 350 -155q143 0 262 79q100 68 191 201l168 -151 q-123 -170 -262 -258q-160 -100 -353 -101q-346 0 -559 205t-213 553zM602 -82h213v-229q0 -80 -43 -114t-125 -34h-43v56h21q43 0 64.5 14t21.5 57v51h-109v199z" />
<glyph unicode="&#xc8;" horiz-adv-x="1323" d="M23 0v221h182v1018h-182v215h1230v-446h-262v231h-510v-346h398v-236h-398v-438h541v268h256v-487h-1255zM307 1808h330l108 -270h-165z" />
<glyph unicode="&#xc9;" horiz-adv-x="1323" d="M23 0v221h182v1018h-182v215h1230v-446h-262v231h-510v-346h398v-236h-398v-438h541v268h256v-487h-1255zM539 1546l110 269h336l-278 -269h-168z" />
<glyph unicode="&#xca;" horiz-adv-x="1323" d="M23 0v221h182v1018h-182v215h1230v-446h-262v231h-510v-346h398v-236h-398v-438h541v268h256v-487h-1255zM262 1548l207 262h348l201 -264h-174l-205 146l-186 -144h-191z" />
<glyph unicode="&#xcb;" horiz-adv-x="1323" d="M23 0v221h182v1018h-182v215h1230v-446h-262v231h-510v-346h398v-236h-398v-438h541v268h256v-487h-1255zM285 1556v248h247v-248h-247zM762 1556v246h246v-246h-246z" />
<glyph unicode="&#xcc;" horiz-adv-x="661" d="M-14 1808h331l107 -270h-166zM23 -2v217h180v1018h-178v217h639v-217h-185v-1020h183v-215h-639z" />
<glyph unicode="&#xcd;" horiz-adv-x="661" d="M23 -2v217h180v1018h-178v217h639v-217h-185v-1020h183v-215h-639zM217 1546l113 269h334l-279 -269h-168z" />
<glyph unicode="&#xce;" horiz-adv-x="661" d="M-59 1548l206 262h349l200 -264h-174l-205 146l-184 -144h-192zM23 -2v217h180v1018h-178v217h639v-217h-185v-1020h183v-215h-639z" />
<glyph unicode="&#xcf;" horiz-adv-x="661" d="M-37 1556v248h248v-248h-248zM23 -2v217h180v1018h-178v217h639v-217h-185v-1020h183v-215h-639zM440 1556v246h246v-246h-246z" />
<glyph unicode="&#xd1;" horiz-adv-x="1632" d="M23 -4v219h180v1020h-180v215l509 -2l668 -1063v848h-207v217h629v-223h-184v-1233l-281 -2l-704 1118v-897h184v-217h-614zM440 1544v31q0 100 41 168q51 84 148 84q72 0 196 -76q59 -37 101 -37q39 0 57 51q10 27 12 50h160q0 -104 -51 -185q-59 -92 -160 -92 q-86 0 -176 63.5t-111 63.5q-41 0 -57 -37t-16 -84h-144z" />
<glyph unicode="&#xd2;" horiz-adv-x="1632" d="M53 713q0 326 213 545t537 219q334 0 551 -205t217 -539q0 -332 -209 -549t-541 -217q-330 0 -549 209t-219 537zM348 735q0 -233 119 -383q129 -162 356 -162q215 0 342 175q115 156 115 378q0 215 -131 361q-137 152 -350 151q-203 0 -332 -161q-119 -150 -119 -359z M457 1808h331l107 -270h-166z" />
<glyph unicode="&#xd3;" horiz-adv-x="1632" d="M53 713q0 326 213 545t537 219q334 0 551 -205t217 -539q0 -332 -209 -549t-541 -217q-330 0 -549 209t-219 537zM348 735q0 -233 119 -383q129 -162 356 -162q215 0 342 175q115 156 115 378q0 215 -131 361q-137 152 -350 151q-203 0 -332 -161q-119 -150 -119 -359z M688 1546l113 269h334l-279 -269h-168z" />
<glyph unicode="&#xd4;" horiz-adv-x="1632" d="M53 713q0 326 213 545t537 219q334 0 551 -205t217 -539q0 -332 -209 -549t-541 -217q-330 0 -549 209t-219 537zM348 735q0 -233 119 -383q129 -162 356 -162q215 0 342 175q115 156 115 378q0 215 -131 361q-137 152 -350 151q-203 0 -332 -161q-119 -150 -119 -359z M412 1548l209 262h344l202 -264h-174l-205 146l-184 -144h-192z" />
<glyph unicode="&#xd5;" horiz-adv-x="1632" d="M53 711q0 326 213 545t537 219q334 0 551 -205t217 -539q0 -332 -209 -549t-541 -217q-330 0 -549 209t-219 537zM348 733q0 -233 119 -383q129 -162 356 -162q215 0 342 174q115 156 115 379q0 215 -131 361q-137 152 -350 151q-203 0 -332 -161q-119 -150 -119 -359z M440 1544v31q0 100 41 168q51 84 148 84q72 0 196 -76q59 -37 101 -37q39 0 57 51q10 27 12 50h160q0 -104 -51 -185q-59 -92 -160 -92q-86 0 -176 63.5t-111 63.5q-41 0 -57 -37t-16 -84h-144z" />
<glyph unicode="&#xd6;" horiz-adv-x="1632" d="M53 713q0 326 213 545t537 219q334 0 551 -205t217 -539q0 -332 -209 -549t-541 -217q-330 0 -549 209t-219 537zM348 735q0 -233 119 -383q129 -162 356 -162q215 0 342 175q115 156 115 378q0 215 -131 361q-137 152 -350 151q-203 0 -332 -161q-119 -150 -119 -359z M453 1563v243h243v-243h-243zM926 1563v243h245v-243h-245z" />
<glyph unicode="&#xd8;" horiz-adv-x="1632" d="M55 702q0 338 214 556.5t552 218.5q123 0 226 -33q80 -25 206 -96l187 202l108 -96l-180 -203q104 -129 154.5 -248.5t50.5 -273.5q0 -344 -213 -553t-555 -209q-131 0 -239.5 32t-207.5 105l-186 -202l-111 98l181 203q-131 231 -133 233q-53 117 -54 266zM338 709 q0 -88 18.5 -158t65.5 -145l674 759q-117 106 -273 107q-229 0 -362 -170q-123 -158 -123 -393zM514 295q131 -121 299 -121q225 0 358 176q121 160 121 391q0 92 -22.5 174t-71.5 146z" />
<glyph unicode="&#xd9;" horiz-adv-x="1587" d="M23 1239v213h612v-215l-184 2l2 -704q0 -195 66.5 -265.5t258.5 -70.5q221 0 297 62.5t76 182.5v791h-186v217h596v-215h-148v-784q0 -276 -170 -392q-141 -94 -432 -94q-301 0 -442 78q-195 106 -195 383v811h-151zM434 1808h332l108 -270h-167z" />
<glyph unicode="&#xda;" horiz-adv-x="1587" d="M23 1239v213h612v-215l-184 2l2 -704q0 -195 66.5 -265.5t258.5 -70.5q221 0 297 62.5t76 182.5v791h-186v217h596v-215h-148v-784q0 -276 -170 -392q-141 -94 -432 -94q-301 0 -442 78q-195 106 -195 383v811h-151zM668 1546l110 269h336l-278 -269h-168z" />
<glyph unicode="&#xdb;" horiz-adv-x="1587" d="M23 1239v213h612v-215l-184 2l2 -704q0 -195 66.5 -265.5t258.5 -70.5q221 0 297 62.5t76 182.5v791h-186v217h596v-215h-148v-784q0 -276 -170 -392q-141 -94 -432 -94q-301 0 -442 78q-195 106 -195 383v811h-151zM391 1548l207 262h348l201 -264h-176l-203 146 l-186 -144h-191z" />
<glyph unicode="&#xdc;" horiz-adv-x="1587" d="M23 1239v213h612v-215h-182v-770q0 -170 116 -227q78 -39 269 -39q147 0 223 53q90 63 90 205v780h-186v213h596v-215l-148 -2l-2 -817q0 -264 -194 -371q-147 -80 -437 -80q-311 0 -444 94q-162 115 -162 414v764h-151zM436 1561v245h246v-245h-246zM911 1561v245h244 v-245h-244z" />
<glyph unicode="&#xdf;" horiz-adv-x="1103" d="M18 -2v186h158v508h-156v185h158q0 303 51 411q82 174 351 174q160 0 272 -84q125 -94 125 -250q0 -123 -70 -192q-55 -55 -186 -100q168 -29 259 -140.5t91 -283.5q0 -176 -138 -304t-317 -128q-41 0 -54 2t-99 18v193q70 -33 137 -33q106 0 175 81t69 187 q0 164 -113 240q-96 66 -266 65l-2 160q117 0 196 43q104 55 105 162q0 90 -56.5 140t-148.5 50q-88 0 -129 -58.5t-41 -148.5v-1083h-371z" />
<glyph unicode="&#xe0;" horiz-adv-x="970" d="M37 260q0 143 107.5 231.5t254.5 88.5q49 0 102.5 -12.5t106.5 -32.5v22q0 78 -53 114t-135 36q-41 0 -101.5 -12.5t-103.5 -28.5l-106 172q92 33 167.5 48t163.5 15q225 0 314 -113q78 -98 77 -327l-6 -283h142v-180h-332v59q-61 -35 -135 -57.5t-144 -22.5 q-129 0 -224 78t-95 205zM168 1329h244l151 -309h-160zM266 279q0 -59 56 -93q44 -26 110 -26q63 0 115 28q63 35 63 95q0 55 -55 83.5t-115 28.5q-66 0 -112 -24q-61 -33 -62 -92z" />
<glyph unicode="&#xe1;" horiz-adv-x="970" d="M37 260q0 143 107.5 231.5t254.5 88.5q49 0 102.5 -12.5t106.5 -32.5v22q0 78 -53 114t-135 36q-41 0 -101.5 -12.5t-103.5 -28.5l-106 172q92 33 167.5 48t163.5 15q225 0 314 -113q78 -98 77 -327l-6 -283h142v-180h-332v59q-61 -35 -135 -57.5t-144 -22.5 q-129 0 -224 78t-95 205zM266 279q0 -59 56 -93q44 -26 110 -26q63 0 115 28q63 35 63 95q0 55 -55 83.5t-115 28.5q-66 0 -112 -24q-61 -33 -62 -92zM373 1020l153 311h240l-240 -311h-153z" />
<glyph unicode="&#xe2;" horiz-adv-x="970" d="M37 260q0 143 107.5 231.5t254.5 88.5q49 0 102.5 -12.5t106.5 -32.5v22q0 78 -53 114t-135 36q-41 0 -101.5 -12.5t-103.5 -28.5l-106 172q92 33 167.5 48t163.5 15q225 0 314 -113q78 -98 77 -327l-6 -283h142v-180h-332v59q-61 -35 -135 -57.5t-144 -22.5 q-129 0 -224 78t-95 205zM162 1020l170 311h280l176 -311h-178l-137 178l-133 -178h-178zM266 279q0 -59 56 -93q44 -26 110 -26q63 0 115 28q63 35 63 95q0 55 -55 83.5t-115 28.5q-66 0 -112 -24q-61 -33 -62 -92z" />
<glyph unicode="&#xe3;" horiz-adv-x="970" d="M37 260q0 143 107.5 231.5t254.5 88.5q49 0 102.5 -12.5t106.5 -32.5v22q0 78 -53 114t-135 36q-41 0 -101.5 -12.5t-103.5 -28.5l-106 172q92 33 167.5 48t163.5 15q225 0 314 -113q78 -98 77 -327l-6 -283h142v-180h-332v59q-61 -35 -135 -57.5t-144 -22.5 q-129 0 -224 78t-95 205zM117 1067q0 104 43 170q51 80 149 80q66 0 162 -56.5t121 -56.5q39 0 58.5 33t19.5 74h159q0 -106 -53 -189q-61 -94 -164 -94q-76 0 -164 63.5t-120 63.5q-39 0 -53.5 -38t-14.5 -85l-141 -2zM266 279q0 -59 56 -93q44 -26 110 -26q63 0 115 28 q63 35 63 95q0 55 -55 83.5t-115 28.5q-66 0 -112 -24q-61 -33 -62 -92z" />
<glyph unicode="&#xe4;" horiz-adv-x="970" d="M39 266q0 141 106.5 226.5t251.5 85.5q51 0 102.5 -10.5t106.5 -28.5v20q0 74 -50 112t-124 38q-49 0 -105.5 -11.5t-109.5 -29.5l-115 170q88 31 171 46t171 15q219 0 308 -115q78 -100 77 -321l-6 -283h140v-180h-330v63q-70 -37 -135.5 -59t-132.5 -22 q-131 0 -228.5 77.5t-97.5 206.5zM162 1049v243h246v-243h-246zM268 276q0 -63 58 -92q44 -22 116 -22q55 0 107 31q61 37 61 88t-53 84.5t-104 33.5q-72 0 -121 -24q-63 -33 -64 -99zM561 1049v243h244v-243h-244z" />
<glyph unicode="&#xe5;" horiz-adv-x="970" d="M43 264q0 139 105.5 226.5t246.5 87.5q53 0 110.5 -10.5t106.5 -30.5v10q0 86 -51 124t-143 38q-41 0 -75 -6.5t-126 -34.5l-108 172q170 61 340 61q219 0 307 -119q76 -102 75 -329l-6 -271h140v-182h-330v59q-104 -45 -131 -53q-72 -25 -137 -24q-133 0 -226 73 q-98 80 -98 209zM268 279q0 -59 60 -91q46 -24 112 -24q57 0 111 31q61 37 61 90t-56 85.5t-114 32.5q-66 0 -120 -31.5t-54 -92.5zM283 1188q0 80 63.5 137t142.5 57q86 0 145.5 -61t59.5 -147q0 -80 -63.5 -141.5t-143.5 -61.5q-88 0 -146 62.5t-58 154.5zM399 1186 q0 -37 23.5 -64.5t60.5 -27.5q39 0 64.5 21.5t25.5 58.5q0 35 -21.5 62.5t-55.5 27.5q-39 0 -68 -20.5t-29 -57.5z" />
<glyph unicode="&#xe6;" horiz-adv-x="1589" d="M39 262q0 145 104.5 228t253.5 83q53 0 101.5 -9t109.5 -29v22q0 78 -56 117t-136 39q-43 0 -102.5 -14.5t-100.5 -34.5l-109 174q98 37 182.5 50t196.5 13q72 0 149 -29.5t124 -80.5q94 59 149 81q74 29 168 29q211 0 340 -145q123 -137 123 -353v-32l-707 2 q18 -88 104.5 -150.5t178.5 -62.5t152 35q35 20 116 102l168 -104q-66 -109 -183.5 -162.5t-254.5 -53.5q-145 0 -240 52q-29 14 -135 86q-106 -68 -176 -97q-98 -41 -197 -41q-131 0 -223 76q-100 82 -100 209zM266 289q0 -70 56 -103q44 -26 120 -26q59 0 113 30 q63 37 63 91q0 55 -59 85.5t-117 30.5q-59 0 -117.5 -27.5t-58.5 -80.5zM823 537h469q0 82 -67.5 136t-151.5 54q-82 0 -166 -56.5t-84 -133.5z" />
<glyph unicode="&#xe7;" horiz-adv-x="970" d="M41 451q0 188 136 320t329 132q82 0 133 -20q25 -10 117 -66v76h184v-387h-186v80q-47 72 -103.5 103.5t-140.5 31.5q-100 0 -165.5 -80t-65.5 -184q0 -127 78.5 -210t205.5 -83q80 0 150 53q59 45 108 125l154 -127q-51 -111 -180 -178q-117 -61 -248 -62 q-213 0 -357 129q-150 135 -149 347zM367 -82h213l6 -176q0 -102 -33 -148q-39 -53 -139 -53h-45v56l18 2q49 0 70.5 14t21.5 57l-4 49h-108v199z" />
<glyph unicode="&#xe8;" horiz-adv-x="1015" d="M43 444q0 199 139.5 328t339.5 129q160 0 279 -91t160 -247q8 -35 13 -90t5 -102h-707q20 -90 100.5 -150.5t176.5 -60.5t153 37q70 59 121 100l168 -104q-102 -121 -202.5 -168.5t-256.5 -47.5q-211 0 -350 129.5t-139 337.5zM190 1329h242l154 -309h-160zM258 539h473 q0 78 -68.5 134t-148.5 56q-92 0 -163.5 -51t-92.5 -139z" />
<glyph unicode="&#xe9;" horiz-adv-x="1015" d="M43 444q0 199 139.5 328t339.5 129q160 0 279 -91t160 -247q8 -35 13 -90t5 -102h-707q20 -90 100.5 -150.5t176.5 -60.5t153 37q70 59 121 100l168 -104q-102 -121 -202.5 -168.5t-256.5 -47.5q-211 0 -350 129.5t-139 337.5zM258 539h473q0 78 -68.5 134t-148.5 56 q-92 0 -163.5 -51t-92.5 -139zM395 1020l154 311h239l-237 -311h-156z" />
<glyph unicode="&#xea;" horiz-adv-x="1015" d="M43 444q0 199 139.5 328t339.5 129q160 0 279 -91t160 -247q8 -35 13 -90t5 -102h-707q20 -90 100.5 -150.5t176.5 -60.5t153 37q70 59 121 100l168 -104q-102 -121 -202.5 -168.5t-256.5 -47.5q-211 0 -350 129.5t-139 337.5zM182 1020l172 311h279l178 -311h-180 l-135 178l-134 -178h-180zM258 539h473q0 78 -68.5 134t-148.5 56q-92 0 -163.5 -51t-92.5 -139z" />
<glyph unicode="&#xeb;" horiz-adv-x="1015" d="M43 444q0 199 139.5 328t339.5 129q160 0 279 -91t160 -247q8 -35 13 -90t5 -102h-707q20 -90 100.5 -150.5t176.5 -60.5t153 37q70 59 121 100l168 -104q-102 -121 -202.5 -168.5t-256.5 -47.5q-211 0 -350 129.5t-139 337.5zM170 1049v243h250v-243h-250zM258 539h473 q0 78 -68.5 134t-148.5 56q-92 0 -163.5 -51t-92.5 -139zM571 1049v245h248v-245h-248z" />
<glyph unicode="&#xec;" horiz-adv-x="528" d="M-45 1329h242l153 -309h-162zM18 0v186h158v506h-158v185h371v-693h150v-184h-521z" />
<glyph unicode="&#xed;" horiz-adv-x="528" d="M18 0v186h158v506h-158v185h371v-693h150v-184h-521zM162 1020l149 311h244l-242 -311h-151z" />
<glyph unicode="&#xee;" horiz-adv-x="528" d="M-53 1020l172 311h278l176 -311h-178l-137 178l-133 -178h-178zM18 0v186h158v506h-158v185h371v-693h150v-184h-521z" />
<glyph unicode="&#xef;" horiz-adv-x="528" d="M-63 1049v243h247v-243h-247zM18 0v186h158v506h-158v185h371v-693h150v-184h-521zM336 1049v245h246v-245h-246z" />
<glyph unicode="&#xf1;" horiz-adv-x="1146" d="M16 -2v186h158v508h-156v185h367l2 -89q84 49 169 78t173 29q131 0 199 -90q59 -80 59 -217v-408h148v-180h-363v526q0 86 -20 121q-27 47 -109 47q-70 0 -162 -47q-47 -25 -92 -49v-418h160v-182h-533zM203 1030v43q0 104 43 168q51 76 151 76q66 0 162 -56.5t121 -56.5 q39 0 57.5 32t18.5 75h162q-23 -162 -84 -228q-51 -55 -138 -55q-76 0 -161.5 63.5t-120.5 63.5q-39 0 -53.5 -38t-14.5 -85z" />
<glyph unicode="&#xf2;" horiz-adv-x="1058" d="M41 434q0 209 140 339t351 130t354.5 -131t143.5 -342q0 -197 -144.5 -325t-346.5 -128q-207 0 -349 123q-150 129 -149 334zM211 1329h244l151 -309h-162zM270 442q0 -119 74 -204.5t191 -85.5t190.5 86t73.5 204q0 113 -77 198t-190 85t-187.5 -84t-74.5 -199z" />
<glyph unicode="&#xf3;" horiz-adv-x="1058" d="M41 434q0 209 140 339t351 130t354.5 -131t143.5 -342q0 -197 -144.5 -325t-346.5 -128q-207 0 -349 123q-150 129 -149 334zM270 442q0 -119 74 -204.5t191 -85.5t190.5 86t73.5 204q0 113 -77 198t-190 85t-187.5 -84t-74.5 -199zM418 1020l149 311h244l-242 -311h-151 z" />
<glyph unicode="&#xf4;" horiz-adv-x="1058" d="M41 434q0 209 140 339t351 130t354.5 -131t143.5 -342q0 -197 -144.5 -325t-346.5 -128q-207 0 -349 123q-150 129 -149 334zM203 1020l172 311h280l174 -311h-178l-135 178l-135 -178h-178zM270 442q0 -119 74 -204.5t191 -85.5t190.5 86t73.5 204q0 113 -77 198 t-190 85t-187.5 -84t-74.5 -199z" />
<glyph unicode="&#xf5;" horiz-adv-x="1058" d="M41 434q0 209 140 339t351 130t354.5 -131t143.5 -342q0 -197 -144.5 -325t-346.5 -128q-207 0 -349 123q-150 129 -149 334zM162 1032v35q0 104 41 170q51 80 151 80q63 0 159.5 -56.5t121.5 -56.5q43 0 59.5 31t16.5 76h163q0 -109 -55 -191q-61 -92 -166 -92 q-63 0 -125 39q-141 88 -155 88q-41 0 -56.5 -37t-15.5 -86h-139zM270 442q0 -119 74 -204.5t191 -85.5t190.5 86t73.5 204q0 113 -77 198t-190 85t-187.5 -84t-74.5 -199z" />
<glyph unicode="&#xf6;" horiz-adv-x="1058" d="M47 455q0 197 145.5 322.5t346.5 125.5q213 0 352 -128t139 -339q0 -205 -144.5 -332t-353.5 -127t-347 134.5t-138 343.5zM217 1053v241h246v-241h-246zM274 438q0 -131 79 -207.5t212 -76.5q102 0 172 94q63 86 64 190q0 115 -74 203t-186 88q-115 0 -191 -86t-76 -205 zM612 1053v243h248v-243h-248z" />
<glyph unicode="&#xf7;" horiz-adv-x="1124" d="M20 469v109h1045v-109h-1045zM422 252q0 45 31.5 79t78.5 34t79 -34t32 -79t-32.5 -78t-78.5 -33q-45 0 -77.5 33t-32.5 78zM422 795q0 45 32.5 77.5t77.5 32.5t78 -32.5t33 -77.5t-32.5 -78t-78.5 -33q-45 0 -77.5 33t-32.5 78z" />
<glyph unicode="&#xf8;" horiz-adv-x="1058" d="M41 434q0 217 152 346q143 121 366 121q57 0 103.5 -12t119.5 -41l109 133l88 -78l-102 -121q76 -78 112.5 -154.5t36.5 -176.5q0 -219 -142.5 -347.5t-363.5 -128.5q-74 0 -128 15.5t-128 54.5l-117 -137l-88 74l111 135l-16 22q-57 72 -85 140.5t-28 154.5zM266 424 q0 -41 8.5 -65.5t32.5 -77.5l350 415q-53 33 -112 33q-131 0 -205 -86t-74 -219zM387 195q64 -48 148 -48q127 0 198.5 89.5t71.5 220.5q0 49 -13.5 85t-46.5 83z" />
<glyph unicode="&#xf9;" horiz-adv-x="1146" d="M6 692v185h359v-555q0 -70 32.5 -114t102.5 -44q84 0 174 72q31 25 86 79v377h-158v185h375v-699h158v-182h-369v125q-80 -63 -172 -104.5t-184 -41.5q-129 0 -193.5 84t-64.5 217v416h-146zM254 1329h242l153 -309h-160z" />
<glyph unicode="&#xfa;" horiz-adv-x="1146" d="M6 692v185h359v-555q0 -70 32.5 -114t102.5 -44q84 0 174 72q31 25 86 79v377h-158v185h375v-699h158v-182h-369v125q-80 -63 -172 -104.5t-184 -41.5q-129 0 -193.5 84t-64.5 217v416h-146zM459 1020l153 311h242l-240 -311h-155z" />
<glyph unicode="&#xfb;" horiz-adv-x="1146" d="M6 692v185h359v-555q0 -70 32.5 -114t102.5 -44q84 0 174 72q31 25 86 79v377h-158v185h375v-699h158v-182h-369v125q-80 -63 -172 -104.5t-184 -41.5q-129 0 -193.5 84t-64.5 217v416h-146zM246 1020l174 311h276l178 -311h-178l-137 178l-133 -178h-180z" />
<glyph unicode="&#xfc;" horiz-adv-x="1146" d="M8 692v185h357v-543q0 -76 33.5 -120t107.5 -44q63 0 136 45t116 102v375h-158v185h375v-697h153v-182h-364l2 125q-76 -63 -169 -104.5t-181 -41.5q-129 0 -195.5 83t-66.5 216v416h-146zM227 1051v243h246v-243h-246zM625 1049v243h247v-243h-247z" />
<glyph unicode="&#xff;" horiz-adv-x="1103" d="M-4 696v185h526v-185h-147q88 -203 178 -405q8 -27 13 -43.5t16 -36.5l194 483h-149v187h485v-187h-123l-207 -467q-100 -233 -120 -274q-80 -156 -175 -234q-117 -96 -280 -96q-37 0 -64.5 4t-46.5 6v203q29 -6 71 -13t56 -7q88 0 150 51q45 37 96 129l-344 700h-129z M215 1049v243h248v-243h-248zM614 1049v245h248v-245h-248z" />
<glyph unicode="&#x152;" horiz-adv-x="2205" d="M55 743q0 344 238 535q221 176 573 176h664l577 -2l9 -446h-263l-6 229h-506v-344h394v-236h-396v-438h537v268h262l-8 -487l-989 2l-248 -2h-49q-74 0 -148 6q-301 0 -477 217q-164 203 -164 522zM348 725q0 -213 105 -352q117 -156 321 -156h293v1020l-137 4 q-289 0 -426 -108q-156 -123 -156 -408z" />
<glyph unicode="&#x153;" horiz-adv-x="1765" d="M41 444q0 203 143.5 332t350.5 129q102 0 203.5 -37t162.5 -106q84 74 159 105.5t181 31.5q227 0 350 -156q115 -143 115 -376h-709q45 -102 113 -154.5t174 -52.5q109 0 176 53q29 23 88 86l172 -109q-70 -104 -188.5 -159.5t-251.5 -55.5q-217 0 -383 146 q-94 -84 -172 -114t-201 -30q-203 0 -343 132.5t-140 334.5zM270 461q0 -121 62 -207q69 -98 186 -98q125 0 203 77.5t78 200.5q0 121 -72 206t-190 85q-106 0 -186.5 -78t-80.5 -186zM991 539h467q0 78 -64.5 134t-144.5 56q-86 0 -165.5 -54t-92.5 -136z" />
<glyph unicode="&#x178;" horiz-adv-x="1544" d="M-4 1241v211h643v-215h-170l315 -389l310 389h-189v215h621v-215h-127l-486 -600v-420h248v-219h-760v219h254v387q-88 106 -174 215q-98 121 -176 213q-66 78 -182 209h-127zM391 1556v248h248v-248h-248zM870 1556v246h244v-246h-244z" />
<glyph unicode="&#x2c6;" horiz-adv-x="0" d="M-309 1020l172 311h278l176 -311h-178l-137 178l-133 -178h-178z" />
<glyph unicode="&#x2dc;" horiz-adv-x="0" d="M-354 1067q0 104 43 170q51 80 151 80q63 0 159.5 -56.5t121.5 -56.5q41 0 59.5 32t18.5 75h163q-23 -162 -83 -228q-51 -55 -138 -55q-76 0 -164 64.5t-116 64.5q-41 0 -56.5 -38t-15.5 -87l-141 -2z" />
<glyph unicode="&#x2000;" horiz-adv-x="951" />
<glyph unicode="&#x2001;" horiz-adv-x="1903" />
<glyph unicode="&#x2002;" horiz-adv-x="951" />
<glyph unicode="&#x2003;" horiz-adv-x="1903" />
<glyph unicode="&#x2004;" horiz-adv-x="634" />
<glyph unicode="&#x2005;" horiz-adv-x="475" />
<glyph unicode="&#x2006;" horiz-adv-x="317" />
<glyph unicode="&#x2007;" horiz-adv-x="317" />
<glyph unicode="&#x2008;" horiz-adv-x="237" />
<glyph unicode="&#x2009;" horiz-adv-x="380" />
<glyph unicode="&#x200a;" horiz-adv-x="105" />
<glyph unicode="&#x2010;" horiz-adv-x="528" d="M43 358v248h465v-248h-465z" />
<glyph unicode="&#x2011;" horiz-adv-x="528" d="M43 358v248h465v-248h-465z" />
<glyph unicode="&#x2012;" horiz-adv-x="528" d="M43 358v248h465v-248h-465z" />
<glyph unicode="&#x2013;" d="M49 387v182h1272v-182h-1272z" />
<glyph unicode="&#x2014;" d="M0 498v215h1378v-215h-1378z" />
<glyph unicode="&#x2018;" horiz-adv-x="352" d="M66 975v309q0 80 54 124t136 44h80v-78q-76 0 -102.5 -22.5t-26.5 -98.5v-28h129v-250h-270z" />
<glyph unicode="&#x2019;" horiz-adv-x="352" d="M57 1202v248h271v-315q0 -106 -88 -142q-55 -23 -181 -22v80h19q78 0 98 39q12 25 12 112h-131z" />
<glyph unicode="&#x201a;" horiz-adv-x="352" d="M53 0v250h269v-318q0 -92 -70 -131q-55 -31 -154 -30h-43v75h25q55 0 78.5 21.5t23.5 77.5l-4 55h-125z" />
<glyph unicode="&#x201c;" horiz-adv-x="706" d="M66 975v299q0 104 71 147q55 33 168 33l31 -2v-74l-8 -2q-70 0 -94.5 -26.5t-24.5 -96.5v-28h127v-250h-270zM414 975v305q0 94 57 133t156 39h51v-76l-23 2q-100 0 -100 -98l4 -55h121v-250h-266z" />
<glyph unicode="&#x201d;" horiz-adv-x="706" d="M55 1200v246h269v-295q0 -121 -80 -158q-51 -25 -187 -24v80h15q70 0 91 25.5t21 96.5v29h-129zM403 969v78q66 0 93 16q37 23 36 84v53h-129v248h271v-260q0 -121 -49.5 -170t-169.5 -49h-52z" />
<glyph unicode="&#x201e;" horiz-adv-x="706" d="M43 -154q68 0 92 15q35 20 35 84l-4 55h-119v250h266v-291q0 -102 -54 -145t-159 -43h-57v75zM393 0v248h269v-297q0 -100 -62 -144q-53 -37 -160 -36h-47v71q66 0 98.5 20.5t32.5 82.5l-6 55h-125z" />
<glyph unicode="&#x2022;" horiz-adv-x="681" d="M74 723q0 109 81 187.5t191 78.5q111 0 186.5 -77.5t75.5 -188.5q0 -113 -74.5 -189.5t-187.5 -76.5q-111 0 -191.5 78.5t-80.5 187.5z" />
<glyph unicode="&#x2026;" horiz-adv-x="2048" d="M236 0v217h213v-217h-213zM918 0v217h212v-217h-212zM1599 0v217h213v-217h-213z" />
<glyph unicode="&#x202f;" horiz-adv-x="380" />
<glyph unicode="&#x2039;" horiz-adv-x="681" d="M180 473v189l322 251v-180l-215 -166l215 -166v-180z" />
<glyph unicode="&#x203a;" horiz-adv-x="681" d="M180 221v180l215 166l-215 166v180l322 -251v-189z" />
<glyph unicode="&#x205f;" horiz-adv-x="475" />
<glyph unicode="&#x2122;" horiz-adv-x="1822" d="M35 1145l6 192h631l6 -192l-37 -2v18q0 88 -76 115q-45 16 -149 16v-618q0 -35 28.5 -45.5t69.5 -10.5v-36h-317v36q47 0 65 7q37 12 37 49l-2 616q-111 0 -154 -18q-72 -31 -71 -129zM735 1300v37h226l264 -573l250 573h221v-37h-19q-37 0 -57.5 -9t-20.5 -40v-577 q0 -35 29 -45.5t70 -10.5v-36h-318v36q47 0 66 7q37 12 37 49v551l-266 -643h-37l-287 610v-518q0 -41 51 -51q20 -4 51 -5v-36h-256v36q47 0 64 7q37 12 37 49v557q0 51 -24.5 60t-53.5 9h-27z" />
<glyph unicode="&#x25fc;" horiz-adv-x="880" d="M0 0v881h881v-881h-881z" />
</font>
</defs>
</svg>
